<?xml version="1.0" encoding="UTF-8"?>
<svg width="16px" height="21px" viewBox="0 0 16 21" version="1.1" xmlns="http://www.w3.org/2000/svg" xmlns:xlink="http://www.w3.org/1999/xlink">
    <!-- Generator: Sketch 53.2 (72643) - https://sketchapp.com -->
    <title>bell</title>
    <desc>Created with Sketch.</desc>
    <g id="All-Components" stroke="none" stroke-width="1" fill="none" fill-rule="evenodd">
        <g id="Artboard" transform="translate(-1303.000000, -26.000000)" stroke="#979797">
            <g id="Table/Tabs">
                <g id="main-header" transform="translate(16.000000, 0.000000)">
                    <g id="Group-7" transform="translate(1287.000000, 25.000000)">
                        <path d="M0.5,18.5 L15.5,18.5 C15.5,17.5445964 14.8247388,16.7276194 13.9005339,16.5400157 L13.5,16.4587116 L13.5,9 C13.5,6.64065435 12.0007104,4.5669368 9.80828098,3.80402997 L9.40997638,3.66543062 L9.47943047,3.24945891 C9.49307846,3.16771894 9.5,3.08440449 9.5,3 C9.5,2.17157288 8.82842712,1.5 8,1.5 C7.17157288,1.5 6.5,2.17157288 6.5,3 C6.5,3.08440449 6.50692154,3.16771894 6.52056953,3.24945891 L6.59002362,3.66543062 L6.19171902,3.80402997 C3.99928959,4.5669368 2.5,6.64065435 2.5,9 L2.5,16.4587116 L2.0994661,16.5400157 C1.17526115,16.7276194 0.5,17.5445964 0.5,18.5 Z M10.1947774,20 L6.80522263,20 C7.36940392,21.0207641 7.94401684,21.5 8.5,21.5 C9.05598316,21.5 9.63059608,21.0207641 10.1947774,20 Z" id="bell"></path>
                    </g>
                </g>
            </g>
        </g>
    </g>
</svg>