<?xml version="1.0" encoding="UTF-8"?>
<svg width="34px" height="34px" viewBox="0 0 34 34" version="1.1" xmlns="http://www.w3.org/2000/svg" xmlns:xlink="http://www.w3.org/1999/xlink">
    <!-- Generator: Sketch 53.2 (72643) - https://sketchapp.com -->
    <title>logo</title>
    <desc>Created with Sketch.</desc>
    <g id="All-Components" stroke="none" stroke-width="1" fill="none" fill-rule="evenodd">
        <g id="UI-Components" transform="translate(-1828.000000, -1588.000000)" fill-rule="nonzero">
            <g id="Table/Tabs" transform="translate(1804.000000, 1566.000000)">
                <g id="main-header">
                    <g id="logo" transform="translate(24.000000, 22.000000)">
                        <path d="M24.4460969,0.757834758 L21.2950997,7.45071225 C20.4335613,7.16353276 19.4842735,7.01196581 18.4791453,7.01196581 C15.2651282,7.01196581 12.1779487,8.57549858 10.0312821,10.9846154 C10.0233048,10.9925926 10.0233048,10.9925926 10.0153276,11.0005698 L5.00564103,6.88433048 C5.01361823,6.87635328 5.01361823,6.87635328 5.02159544,6.86837607 C8.69908832,2.7042735 14.0517949,0 19.5887749,0 C21.3190313,0 22.9623362,0.263247863 24.4460969,0.757834758 Z" id="Shape" fill="#E68C31"></path>
                        <path d="M8.21168091,22.3920228 C8.22045584,22.3920228 8.22045584,22.4 8.22045584,22.4 L6.09851852,23.780057 L8.21168091,22.3920228 Z" id="Shape" fill="#FFD400"></path>
                        <path d="M7.7817094,21.5065527 L1.42307692,25.5988604 C0.282336182,23.1977208 -0.195498575,20.3737892 0.171452991,17.3264957 C0.187407407,17.1190883 0.219316239,16.9116809 0.251225071,16.6962963 C0.697948718,13.8643875 1.82273504,11.2 3.45008547,8.86267806 C3.75321937,8.41595442 4.0802849,7.97720798 4.43128205,7.55441595 L9.44017094,11.7025641 C8.33133903,13.1623932 7.55037037,14.8774929 7.26319088,16.7042735 C6.99196581,18.4512821 7.19139601,20.0937892 7.7817094,21.5065527 Z" id="Shape" fill="#E4687F"></path>
                        <path d="M33.8592023,13.7128205 L33.8592023,14.2472934 C33.8592023,14.4387464 33.8592023,14.6301994 33.8352707,14.8296296 C33.8193162,15.1327635 33.8033618,15.4438746 33.7802279,15.7549858 C33.7395442,16.0660969 33.6996581,16.377208 33.6605698,16.6962963 L33.6605698,16.7042735 C33.5329345,17.462906 33.3654131,18.219943 33.1500285,18.9538462 C33.1260969,19.0583476 33.0862108,19.1612536 33.0622792,19.265755 C32.9825071,19.5130484 32.8947578,19.751567 32.8070085,19.9916809 L15.3736182,19.9916809 L16.9650712,16.697094 L18.5764672,13.3466667 L26.5776068,13.3466667 C26.0511111,10.8737322 24.4875783,8.87145299 22.2459829,7.82643875 L25.4280912,1.11760684 C30.3500285,3.14381766 33.5967521,7.73868946 33.8528205,13.3466667 C33.8592023,13.4735043 33.8592023,13.5931624 33.8592023,13.7128205 Z" id="Shape" fill="#C14998"></path>
                        <path d="M28.8415385,26.6039886 C26.3606268,29.380057 23.145812,31.502792 19.619886,32.5948718 C17.9047863,33.1213675 16.1258689,33.4093447 14.3222222,33.4093447 C8.7788604,33.4093447 4.27891738,30.6978917 1.90968661,26.5329915 C1.90968661,26.5250142 1.9017094,26.5250142 1.9017094,26.517037 L5.97726496,23.8606268 L6.09692308,23.7808547 L8.2188604,22.4007977 C9.59094017,24.8258689 12.1986895,26.3973789 15.4302564,26.3973789 C16.4672934,26.3973789 17.5043305,26.2298575 18.5014815,25.9187464 C20.3601709,25.3435897 22.0912251,24.2674644 23.4792593,22.8554986 L28.8415385,26.6039886 Z" id="Shape" fill="#8954BA"></path>
                        <path d="M10.0312821,10.9846154 C10.0233048,10.9925926 10.0233048,10.9925926 10.0153276,11.0005698 L5.00564103,6.88433048 C5.01361823,6.87635328 5.01361823,6.87635328 5.02159544,6.86837607 L10.0312821,10.9846154 Z" id="Shape" fill="#FFFFFF"></path>
                        <path d="M5.9788604,23.8598291 L1.91048433,26.5321937 C1.91048433,26.5242165 1.90250712,26.5242165 1.90250712,26.5162393 L5.9788604,23.8598291 Z" id="Shape" fill="#FFFFFF"></path>
                    </g>
                </g>
            </g>
        </g>
    </g>
</svg>