<svg width="27" height="25" xmlns="http://www.w3.org/2000/svg"><g stroke="#8954BA" fill="none" fill-rule="evenodd"><path d="M7.5 19.5l12-15.67V2A1.5 1.5 0 0 0 18 .5H2A1.5 1.5 0 0 0 .5 2v16A1.5 1.5 0 0 0 2 19.5h5.5z"/><path d="M24.113 17.03l1.735 1.357a.415.415 0 0 1 .099.527l-1.645 2.845a.402.402 0 0 1-.502.181l-2.048-.822c-.428.32-.888.6-1.39.806l-.312 2.18a.401.401 0 0 1-.403.345h-3.29a.401.401 0 0 1-.403-.346l-.313-2.179a6.009 6.009 0 0 1-1.39-.806l-2.047.822a.413.413 0 0 1-.502-.18l-1.645-2.846a.415.415 0 0 1 .099-.527l1.735-1.357a6.522 6.522 0 0 1-.058-.806c0-.271.025-.542.058-.806l-1.735-1.357a.405.405 0 0 1-.099-.526l1.645-2.846c.099-.18.312-.255.502-.18l2.047.822c.428-.32.889-.6 1.39-.806l.313-2.18A.401.401 0 0 1 16.357 8h3.29c.205 0 .378.148.403.345l.312 2.18c.502.206.962.477 1.39.806l2.048-.823a.415.415 0 0 1 .502.181l1.645 2.846a.415.415 0 0 1-.1.526l-1.734 1.357c.032.264.057.527.057.806 0 .28-.025.543-.057.806zm-6.111 2.073a2.882 2.882 0 0 0 2.878-2.879 2.882 2.882 0 0 0-2.878-2.878 2.882 2.882 0 0 0-2.879 2.878 2.882 2.882 0 0 0 2.879 2.879z"/></g></svg>