<svg width="34" height="34" xmlns="http://www.w3.org/2000/svg"><g fill="none"><path d="M24.446.758l-3.15 6.693a8.903 8.903 0 0 0-2.817-.439c-3.214 0-6.301 1.563-8.448 3.973l-.016.016-5.01-4.117.017-.016C8.699 2.704 14.052 0 19.589 0c1.73 0 3.373.263 4.857.758z" fill="#E68C31"/><path d="M8.212 22.392c.008 0 .008.008.008.008L6.1 23.78l2.113-1.388z" fill="#FFD400"/><path d="M7.782 21.507l-6.359 4.092C.283 23.198-.195 20.374.171 17.326c.016-.207.048-.414.08-.63.447-2.832 1.572-5.496 3.2-7.833.302-.447.63-.886.98-1.309l5.01 4.149c-1.11 1.46-1.89 3.174-2.178 5.001-.271 1.747-.072 3.39.519 4.803z" fill="#E4687F"/><path d="M33.86 13.713v.534c0 .192 0 .383-.025.583-.016.303-.032.614-.055.925l-.12.941v.008a19.499 19.499 0 0 1-.51 2.25c-.024.104-.064.207-.088.312-.08.247-.167.486-.255.726H15.374l1.591-3.295 1.611-3.35h8.002c-.527-2.473-2.09-4.476-4.332-5.52l3.182-6.71c4.922 2.027 8.169 6.622 8.425 12.23.006.127.006.246.006.366z" fill="#C14998"/><path d="M28.842 26.604c-2.481 2.776-5.696 4.899-9.222 5.99a18.039 18.039 0 0 1-5.298.815c-5.543 0-10.043-2.711-12.412-6.876 0-.008-.008-.008-.008-.016l4.075-2.656.12-.08 2.122-1.38c1.372 2.425 3.98 3.996 7.211 3.996a10.33 10.33 0 0 0 3.071-.478c1.86-.575 3.59-1.652 4.978-3.064l5.363 3.749z" fill="#8954BA"/><path d="M10.031 10.985l-.016.016-5.01-4.117.017-.016 5.01 4.117zM5.979 23.86L1.91 26.532c0-.008-.007-.008-.007-.016l4.076-2.656z" fill="#FFF"/></g></svg>